<svg width="485" height="347" viewBox="0 0 485 347" fill="none" xmlns="http://www.w3.org/2000/svg">
<g clip-path="url(#clip0)">
<path opacity="0.1" d="M242.272 346.504C376.075 346.504 484.544 339.686 484.544 331.276C484.544 322.865 376.075 316.047 242.272 316.047C108.469 316.047 0 322.865 0 331.276C0 339.686 108.469 346.504 242.272 346.504Z" fill="#FF9900"/>
<path d="M446.542 319.997C446.545 321.201 446.421 322.401 446.173 323.578C446.126 323.8 446.076 324.04 446.025 324.229C444.714 329.485 441.018 333.329 436.606 333.574C436.459 333.574 436.311 333.574 436.145 333.574C431.479 333.574 427.534 329.55 426.232 324.008C426.196 323.86 426.163 323.712 426.131 323.546C425.882 322.369 425.758 321.168 425.762 319.965C425.762 312.457 430.409 306.375 436.145 306.375C441.881 306.375 446.542 312.498 446.542 319.997Z" fill="#3F3D56"/>
<path opacity="0.1" d="M446.542 319.997C446.545 321.201 446.422 322.401 446.173 323.578C446.126 323.8 446.076 324.04 446.025 324.229C445.868 324.229 445.716 324.229 445.563 324.229C444.421 324.168 443.285 324.013 442.167 323.768C441.177 324.074 440.165 324.305 439.14 324.46C438.354 324.578 437.562 324.652 436.768 324.681H435.965C435.014 324.681 434.065 324.618 433.122 324.492C431.598 324.289 430.102 323.917 428.66 323.385C427.87 323.648 427.066 323.863 426.251 324.031C426.214 323.883 426.182 323.735 426.149 323.569C425.901 322.392 425.777 321.192 425.78 319.988C425.78 312.48 430.427 306.398 436.163 306.398C441.899 306.398 446.542 312.499 446.542 319.997Z" fill="black"/>
<path d="M468.692 294.686C468.696 291.383 467.922 288.126 466.431 285.179L454.221 288.977L464.941 282.674C463.143 280.076 460.785 277.914 458.041 276.35C455.297 274.785 452.236 273.857 449.085 273.633C448.582 272.873 448.032 272.146 447.437 271.455L429.901 276.914L444.285 268.46C441.534 266.35 438.304 264.95 434.883 264.384C431.462 263.818 427.954 264.104 424.669 265.216C421.384 266.328 418.424 268.232 416.05 270.761C413.677 273.289 411.963 276.363 411.059 279.711L426.08 297.007L409.786 285.216C405.654 288.142 402.712 292.456 401.495 297.371C400.279 302.285 400.869 307.473 403.159 311.989C405.449 316.504 409.286 320.046 413.969 321.969C418.653 323.891 423.872 324.066 428.674 322.462C433.017 324.054 437.762 324.183 442.186 322.831C445.27 323.513 448.468 323.494 451.544 322.776C454.62 322.058 457.495 320.659 459.958 318.681C462.422 316.704 464.41 314.199 465.776 311.351C467.142 308.503 467.852 305.385 467.852 302.226C467.852 301.765 467.852 301.303 467.806 300.842C468.404 298.845 468.703 296.77 468.692 294.686Z" fill="#FF9900"/>
<path opacity="0.1" d="M468.328 298.604C461.88 297.379 455.267 297.295 448.789 298.354C441.456 299.568 433.962 302.235 426.791 300.283C422.582 299.139 418.946 296.49 414.834 295.023C410.868 293.635 406.594 293.378 402.49 294.28C400.925 298.021 400.47 302.134 401.18 306.127C401.89 310.12 403.735 313.823 406.494 316.796C409.253 319.768 412.81 321.883 416.739 322.888C420.668 323.892 424.803 323.745 428.651 322.462C432.994 324.054 437.739 324.183 442.162 322.831C445.247 323.513 448.445 323.495 451.521 322.776C454.597 322.058 457.472 320.659 459.935 318.682C462.399 316.704 464.387 314.199 465.753 311.351C467.119 308.503 467.829 305.385 467.829 302.226C467.829 301.765 467.829 301.303 467.783 300.842C468.006 300.106 468.188 299.359 468.328 298.604Z" fill="black"/>
<path d="M322.383 79.359H319.739C319.155 79.359 318.682 79.8321 318.682 80.4158V117.536C318.682 118.12 319.155 118.593 319.739 118.593H322.383C322.967 118.593 323.44 118.12 323.44 117.536V80.4158C323.44 79.8321 322.967 79.359 322.383 79.359Z" fill="#3F3D56"/>
<path d="M162.461 48.6205H161.173C160.791 48.6205 160.481 48.9304 160.481 49.3127V60.8448C160.481 61.2271 160.791 61.537 161.173 61.537H162.461C162.843 61.537 163.153 61.2271 163.153 60.8448V49.3127C163.153 48.9304 162.843 48.6205 162.461 48.6205Z" fill="#3F3D56"/>
<path d="M162.613 72.2709H161.164C160.733 72.2709 160.384 72.62 160.384 73.0508V93.9738C160.384 94.4045 160.733 94.7537 161.164 94.7537H162.613C163.044 94.7537 163.393 94.4045 163.393 93.9738V73.0508C163.393 72.62 163.044 72.2709 162.613 72.2709Z" fill="#3F3D56"/>
<path d="M162.553 102.617H161.173C160.763 102.617 160.43 102.95 160.43 103.36V124.551C160.43 124.961 160.763 125.294 161.173 125.294H162.553C162.963 125.294 163.296 124.961 163.296 124.551V103.36C163.296 102.95 162.963 102.617 162.553 102.617Z" fill="#3F3D56"/>
<path d="M304.778 5.93909H178.464C169.368 5.93909 161.995 13.3129 161.995 22.409V313.131C161.995 322.227 169.368 329.601 178.464 329.601H304.778C313.874 329.601 321.248 322.227 321.248 313.131V22.409C321.248 13.3129 313.874 5.93909 304.778 5.93909Z" fill="#3F3D56"/>
<path d="M247.325 15.6023H227.431C226.784 15.6023 226.259 16.1271 226.259 16.7744V18.948C226.259 19.5953 226.784 20.1201 227.431 20.1201H247.325C247.972 20.1201 248.497 19.5953 248.497 18.948V16.7744C248.497 16.1271 247.972 15.6023 247.325 15.6023Z" fill="#E6E8EC"/>
<path d="M254.422 20.42C255.837 20.42 256.984 19.2734 256.984 17.8589C256.984 16.4444 255.837 15.2977 254.422 15.2977C253.008 15.2977 251.861 16.4444 251.861 17.8589C251.861 19.2734 253.008 20.42 254.422 20.42Z" fill="#E6E8EC"/>
<path d="M311.414 27.0145V308.511C311.413 311.865 310.08 315.081 307.708 317.453C305.336 319.824 302.119 321.156 298.765 321.156H184.477C181.123 321.156 177.907 319.824 175.535 317.453C173.163 315.081 171.83 311.865 171.828 308.511V27.0145C171.828 25.3534 172.156 23.7086 172.791 22.174C173.427 20.6393 174.359 19.2449 175.533 18.0704C176.708 16.8958 178.102 15.9641 179.637 15.3284C181.172 14.6928 182.816 14.3656 184.477 14.3656H201.579V16.5622C201.584 19.3218 202.684 21.9667 204.636 23.9167C206.589 25.8667 209.235 26.9625 211.995 26.9637H270.14C271.508 26.9637 272.862 26.6943 274.126 26.1709C275.39 25.6475 276.538 24.8803 277.505 23.9131C278.472 22.946 279.239 21.7978 279.763 20.5342C280.286 19.2705 280.556 17.9161 280.556 16.5484V14.3656H298.788C302.139 14.3717 305.35 15.7071 307.717 18.0785C310.085 20.45 311.414 23.6638 311.414 27.0145Z" fill="white"/>
<path opacity="0.2" d="M312.415 143.254V238.977H311.414V239.074H171.828V122.128C172.724 121.107 173.631 120.047 174.551 118.949C194.154 95.5383 220.8 89.3776 241.423 88.7316C255.553 88.2701 269.619 91.1912 283.047 96.9919C290.14 100.056 300.32 103.416 311.414 103.748V139.936C312.092 141.87 312.415 143.254 312.415 143.254Z" fill="#FF9900"/>
<path opacity="0.2" d="M312.415 143.254V238.977H171.828V176.272C176.835 175.013 183.827 170.167 192.798 156.78C203.527 140.762 218.105 136.549 229.388 136.106C237.117 135.801 244.815 137.786 252.161 141.759C260.426 146.221 276.356 151.602 288.461 135.981C301.843 118.709 308.959 132.954 311.414 139.936C312.092 141.87 312.415 143.254 312.415 143.254Z" fill="#FF9900"/>
<path d="M292.111 221.446H191.51C188.452 221.446 185.973 223.925 185.973 226.983V250.98C185.973 254.038 188.452 256.518 191.51 256.518H292.111C295.169 256.518 297.648 254.038 297.648 250.98V226.983C297.648 223.925 295.169 221.446 292.111 221.446Z" fill="#736E9E"/>
<path d="M61.8647 315.517L70.6972 310.307C69.5027 308.266 67.9758 306.44 66.1794 304.903L49.5158 310.104L62.5754 302.425C59.3425 300.654 55.7043 299.755 52.0187 299.817C48.3332 299.88 44.7273 300.9 41.5561 302.779C38.3848 304.658 35.7576 307.331 33.9328 310.533C32.108 313.736 31.1487 317.359 31.1492 321.045C31.1492 332.771 40.6509 333.177 52.3769 333.177C64.1028 333.177 73.6045 332.771 73.6045 321.045C73.6086 318.078 72.9875 315.144 71.7817 312.434L61.8647 315.517Z" fill="#FF9900"/>
<path opacity="0.1" d="M64.1121 326.919C63.172 325.977 62.1215 325.151 60.9833 324.46C59.3774 323.394 57.7207 322.309 55.8287 321.945C54.1674 321.626 52.4553 321.894 50.7525 321.802C47.8145 321.621 45.0491 320.352 42.9952 318.244C41.7907 316.998 40.8401 315.475 39.3911 314.511C37.8267 313.486 35.8424 313.265 33.9873 313.518C33.4497 313.6 32.9167 313.709 32.3906 313.846C31.5578 316.156 31.133 318.594 31.1354 321.05C31.1354 332.776 40.6371 333.182 52.363 333.182C58.053 333.182 63.2168 333.085 67.0285 331.645L66.3917 330.454C65.7843 329.184 65.0183 327.997 64.1121 326.919Z" fill="black"/>
<path d="M105.326 268.714C104.651 269.306 104.132 270.054 103.812 270.892C103.023 273.357 105.229 275.775 105.441 278.354C105.607 280.403 104.518 282.314 103.9 284.28C103.202 286.722 103.247 289.316 104.03 291.733C104.812 294.149 106.296 296.277 108.293 297.847C108.718 298.208 109.22 298.467 109.761 298.604C110.207 298.657 110.659 298.62 111.09 298.493C111.521 298.366 111.921 298.152 112.267 297.865C113.338 297.086 114.155 296.007 114.615 294.764C114.998 293.543 115.205 292.274 115.229 290.994L115.557 286.056C115.898 280.902 116.207 275.586 114.952 270.523C114.542 268.862 113.78 265.046 111.86 264.815C109.941 264.584 106.6 267.468 105.326 268.714Z" fill="#3F3D56"/>
<path d="M137.518 247.505C135.213 255.6 133.542 263.862 132.52 272.217C132.373 273.393 132.22 274.63 131.51 275.581C130.093 277.487 127.255 277.367 124.902 277.058C124.337 277.028 123.786 276.87 123.291 276.596C122.405 275.996 122.211 274.796 122.105 273.73C120.493 258.016 119.416 242.26 118.875 226.462C118.852 225.857 138.575 225.802 140.264 227.385C141.953 228.968 140.642 234.888 140.264 236.905C139.646 240.495 138.529 243.993 137.518 247.505Z" fill="#FBBEBE"/>
<path opacity="0.05" d="M137.518 247.505C135.213 255.6 133.542 263.862 132.52 272.217C132.373 273.393 132.22 274.63 131.51 275.581C130.093 277.487 127.255 277.367 124.902 277.058C124.337 277.028 123.786 276.87 123.291 276.596C122.405 275.996 122.211 274.796 122.105 273.73C120.493 258.016 119.416 242.26 118.875 226.462C118.852 225.857 138.575 225.802 140.264 227.385C141.953 228.968 140.642 234.888 140.264 236.905C139.646 240.495 138.529 243.993 137.518 247.505Z" fill="black"/>
<path d="M96.4473 224.215L104.435 241.783C107.093 247.625 109.77 253.532 111.039 259.822C111.548 262.449 111.873 265.109 112.013 267.782C112.206 270.073 112.134 272.379 111.8 274.653C111.51 276.342 110.974 277.985 110.739 279.683C109.816 286.453 113.651 292.821 116.277 299.12C118.545 304.53 119.989 310.25 120.559 316.089C120.799 318.576 120.933 321.216 122.354 323.269C124.952 322.489 127.49 321.816 130.199 322.12C130.684 318.147 128.173 314.487 127.25 310.583C125.557 303.431 129.299 295.913 128.026 288.673C127.334 284.75 125.188 281.059 125.363 277.081C125.691 269.826 127.052 262.498 125.668 255.392C124.108 247.357 119.622 240.052 118.63 231.93C117.869 225.691 119.092 218.792 115.617 213.55C108.026 213.102 100.176 217.583 96.4473 224.215Z" fill="#FBBEBE"/>
<path d="M122.7 334.543C121.902 334.571 120.97 334.543 120.476 333.911C120.235 333.543 120.097 333.118 120.075 332.679C119.697 329.897 119.511 327.092 119.521 324.284C119.521 323.26 119.567 322.171 120.139 321.326C120.559 320.811 121.038 320.346 121.565 319.942C122.788 318.811 123.679 317.173 125.257 316.652C125.948 316.451 126.681 316.441 127.378 316.624C128.074 316.807 128.708 317.175 129.212 317.69C130.208 318.752 130.824 320.113 130.965 321.562C131.196 323.278 131.002 325.147 131.911 326.638C132.271 327.215 132.774 327.685 133.18 328.23C134.565 330.076 135.806 333.689 132.95 334.437C129.922 335.226 125.843 334.441 122.7 334.543Z" fill="#3F3D56"/>
<path d="M129.627 120.245C131.242 117.126 130.278 113.111 127.97 110.462C125.663 107.813 122.29 106.337 118.847 105.538C114.232 104.458 109.285 104.468 104.869 106.166C101.348 107.518 98.3163 109.858 95.0675 111.768C89.3262 115.148 82.9004 117.198 76.2626 117.767C68.8791 118.39 60.6326 117.421 54.9242 122.124C44.4673 130.735 51.7493 150.139 42.003 159.535C39.3726 162.068 35.8609 163.439 32.8475 165.502C29.8341 167.565 27.1391 170.864 27.6236 174.482C27.8543 176.222 28.805 177.791 29.9033 179.161C34.6195 185.054 42.5383 188.141 50.028 187.223C57.5177 186.305 64.3751 181.496 68.0253 174.879C68.9483 173.222 69.6959 171.409 71.1495 170.204C74.0614 167.8 78.3346 168.774 82.1094 168.658C90.5036 168.4 98.1271 161.205 98.8608 152.834C99.1746 149.258 98.5655 145.096 101.136 142.585C103.208 140.555 106.447 140.573 109.281 139.95C114.486 138.81 118.275 135.045 120.651 130.448C121.741 128.335 121.63 125.972 123.245 124.219C124.966 122.29 128.09 123.208 129.627 120.245Z" fill="#3F3D56"/>
<g opacity="0.1">
<path opacity="0.1" d="M69.3821 119.23C72.4437 118.969 75.4701 118.392 78.4131 117.509C77.5824 117.624 76.7518 117.721 75.9165 117.79C70.1297 118.275 63.7983 117.79 58.5837 119.825C62.137 119.461 65.8611 119.525 69.3821 119.23Z" fill="black"/>
<path opacity="0.1" d="M64.2321 171.667C62.7784 172.867 62.0124 174.685 61.1079 176.342C58.3113 181.383 53.8328 185.282 48.4544 187.357C48.8651 187.329 49.2758 187.292 49.6865 187.242C57.1762 186.319 64.0336 181.519 67.6839 174.902C68.6068 173.245 69.3498 171.427 70.808 170.227L71.0572 170.033C68.5238 169.973 66.0964 170.126 64.2321 171.667Z" fill="black"/>
<path opacity="0.1" d="M127.624 110.49C125.317 107.841 121.92 106.369 118.501 105.566C113.886 104.486 108.939 104.5 104.518 106.198L104.223 106.318C106.824 106.17 109.432 106.402 111.967 107.006C115.386 107.809 118.787 109.281 121.09 111.934C123.393 114.588 124.362 118.598 122.746 121.717C121.21 124.68 118.086 123.757 116.327 125.672C114.712 127.421 114.823 129.788 113.734 131.902C111.69 135.857 108.593 139.189 104.458 140.771C105.903 140.43 107.453 140.278 108.893 139.964C114.099 138.819 117.887 135.058 120.264 130.462C121.357 128.349 121.247 125.981 122.857 124.232C124.62 122.317 127.744 123.236 129.276 120.278C130.891 117.167 129.927 113.152 127.624 110.49Z" fill="black"/>
<path opacity="0.1" d="M102.363 141.408C99.5299 142.027 96.2904 142.013 94.2184 144.039C91.648 146.554 92.2571 150.716 91.9433 154.293C91.3942 160.546 86.9964 166.143 81.3065 168.686H81.7264C90.1205 168.427 97.7394 161.229 98.4732 152.862C98.7916 149.281 98.1824 145.119 100.753 142.608C101.342 142.046 102.035 141.604 102.793 141.307L102.363 141.408Z" fill="black"/>
</g>
<path d="M129.765 162.244C129.382 162.922 128.593 163.236 127.86 163.508C120.264 166.305 112.271 169.152 104.26 167.975C103.96 166.715 103.665 165.451 103.369 164.191C102.942 162.364 102.511 160.536 102.077 158.709C101.874 157.837 101.667 156.955 101.5 156.069C101.214 154.67 101.123 153.239 101.228 151.815C101.277 151.298 101.37 150.787 101.505 150.287C101.742 149.377 102.139 148.516 102.677 147.744C102.769 147.62 102.866 147.495 102.968 147.375C103.424 146.825 103.978 146.363 104.601 146.014C105.963 145.266 107.832 144.948 108.381 143.499C108.593 142.741 108.572 141.937 108.321 141.191C107.859 139.346 107.024 137.61 106.507 135.783C105.852 133.476 106.84 133.619 109.069 133.06C113.083 132.05 117.283 131.325 121.404 132.137C121.21 134.173 121.021 136.258 121.533 138.243C122.045 140.227 123.416 142.11 125.386 142.659C125.677 142.742 125.986 142.793 126.309 142.862C126.737 142.931 127.143 143.098 127.495 143.351C127.738 143.552 127.931 143.806 128.058 144.094C128.259 144.581 128.391 145.094 128.45 145.617C129.173 150.459 129.695 155.325 130.015 160.213V160.398C130.11 161.024 130.023 161.665 129.765 162.244Z" fill="#FBBEBE"/>
<path d="M90.6605 154.293C88.9346 156.918 88.3531 160.112 87.827 163.213L84.4768 182.641C84.0153 185.299 83.6046 188.22 84.9659 190.55C85.4274 191.339 86.0735 192.022 86.4103 192.858C86.6648 193.698 86.8319 194.563 86.9087 195.437C87.6932 199.891 92.0726 202.895 96.4658 203.975C98.0532 204.367 99.9083 204.519 101.159 203.462C102.543 202.313 102.543 200.126 101.727 198.548C100.91 196.969 99.4192 195.853 97.9748 194.796L93.1893 191.27L95.9582 170.043C96.1612 168.501 96.8811 166.503 98.4409 166.674C99.8622 166.826 100.956 168.898 102.22 168.229C102.617 167.961 102.896 167.551 103 167.085C103.554 165.345 103.402 163.471 103.245 161.648L102.673 155.068C102.483 152.931 103.032 151.33 103.291 149.323C103.591 146.983 102.031 147.694 100.107 148.197C96.4104 149.175 92.7971 151.035 90.6605 154.293Z" fill="#FBBEBE"/>
<path d="M150.167 186.199C149.815 186.79 149.295 187.263 148.672 187.555C144.936 189.662 140.542 190.28 136.369 189.286C135.408 189.003 134.431 188.775 133.443 188.603C131.865 188.409 130.259 188.723 128.667 188.603C125.437 188.358 122.599 186.342 120.361 183.988C119.013 182.604 117.79 180.338 119.046 178.852C119.396 178.494 119.832 178.229 120.312 178.084C120.792 177.939 121.301 177.917 121.791 178.021C122.768 178.239 123.711 178.59 124.592 179.064C127.681 180.496 130.985 181.407 134.371 181.759C136.678 181.999 139.613 181.607 140.412 179.415C140.799 178.349 140.527 177.168 140.255 176.065C139.51 173.044 138.766 170.021 138.021 166.997C137.97 166.733 137.876 166.479 137.744 166.245C137.706 166.181 137.662 166.123 137.61 166.069C137.316 165.824 136.96 165.665 136.581 165.608C134.86 165.183 133.139 164.496 131.907 163.227C131.099 162.326 130.456 161.29 130.005 160.167C129.876 159.886 129.756 159.6 129.632 159.313C128.686 157.108 127.689 154.846 126.918 152.53C126.38 150.964 125.983 149.353 125.732 147.717C125.529 146.3 125.418 145.649 126.194 145.022C126.402 144.865 126.622 144.726 126.854 144.606C127.209 144.417 127.61 144.228 128.035 144.048L128.446 143.877C129.708 143.372 131.005 142.959 132.327 142.641C135.529 141.898 138.949 143.448 141.145 145.899C143.342 148.349 144.482 151.556 145.211 154.763C145.94 157.971 146.314 161.256 147.228 164.413C147.583 165.649 148.026 166.868 148.33 168.104C148.657 169.576 148.89 171.066 149.027 172.567C149.461 176.391 149.893 180.215 150.324 184.039C150.483 184.759 150.429 185.509 150.167 186.199Z" fill="#FBBEBE"/>
<path d="M102.783 184.537C103.706 190.426 101.053 196.217 98.487 201.612C99.9406 202.673 101.717 203.199 103.452 203.656C115.066 206.709 127.139 207.618 139.078 206.337C139.364 204.344 139.632 202.23 138.815 200.394C138.307 199.254 137.43 198.326 136.872 197.209C135.949 195.364 136.041 193.218 136.143 191.169L136.969 173.711C131.242 171.072 124.602 173.545 118.303 173.901C115.04 174.085 111.736 173.688 108.519 174.265C106.849 174.565 101.597 175.391 100.808 177.112C100.019 178.834 102.502 182.664 102.783 184.537Z" fill="#FBBEBE"/>
<path opacity="0.05" d="M102.783 184.537C103.706 190.426 101.053 196.217 98.487 201.612C99.9406 202.673 101.717 203.199 103.452 203.656C115.066 206.709 127.139 207.618 139.078 206.337C139.364 204.344 139.632 202.23 138.815 200.394C138.307 199.254 137.43 198.326 136.872 197.209C135.949 195.364 136.041 193.218 136.143 191.169L136.969 173.711C131.242 171.072 124.602 173.545 118.303 173.901C115.04 174.085 111.736 173.688 108.519 174.265C106.849 174.565 101.597 175.391 100.808 177.112C100.019 178.834 102.502 182.664 102.783 184.537Z" fill="black"/>
<path d="M117.956 201.436C111.75 200.144 105.649 198.008 99.313 197.86C98.9949 197.828 98.6742 197.889 98.3901 198.035C98.0809 198.291 97.8744 198.65 97.8086 199.046C97.1534 201.307 96.5673 203.585 96.0504 205.88C94.3338 213.508 93.4893 221.935 97.2641 228.783C97.2272 226.559 98.6254 224.478 100.494 223.246C102.363 222.013 104.601 221.515 106.817 221.312C109.032 221.109 111.399 221.192 113.462 222.101C114.903 222.756 116.147 223.779 117.068 225.067C117.989 226.355 118.555 227.863 118.709 229.438L140.513 230.144C140.641 230.182 140.776 230.187 140.906 230.159C141.036 230.131 141.156 230.07 141.257 229.984C141.358 229.897 141.436 229.787 141.483 229.662C141.53 229.538 141.546 229.404 141.528 229.272C142.332 222.278 142.303 215.212 141.441 208.225C141.201 206.273 141.168 203.564 138.972 202.83C136.351 201.953 132.207 202.978 129.406 202.858C125.557 202.696 121.728 202.221 117.956 201.436Z" fill="#3F3D56"/>
<path d="M137.749 167.251L137.68 176.942L115.621 177.675C111.574 177.814 107.495 177.952 103.549 178.852C102.414 179.111 101.293 179.434 100.176 179.752C99.0131 175.493 97.8686 171.03 98.1732 166.688C98.2573 165.516 98.4615 164.357 98.7823 163.227C99.4838 160.79 100.799 158.492 101.5 156.083C101.783 155.145 101.938 154.174 101.962 153.194C101.91 152.216 101.755 151.247 101.5 150.301C101.298 149.525 101.202 148.726 101.214 147.924L102.963 147.384C103.014 147.592 103.056 147.795 103.092 148.007C103.166 148.446 103.226 148.893 103.268 149.341C103.367 150.45 103.397 151.565 103.36 152.678C103.3 154.902 103 157.38 104.389 159.138C106.194 161.395 109.664 161.044 112.497 160.481L119.918 159C122.262 158.538 124.878 157.883 126.101 155.829C126.623 154.832 126.899 153.724 126.904 152.599V152.378C127.015 149.926 126.771 147.472 126.18 145.091C126 144.343 125.778 143.605 125.529 142.88H126.272C126.7 142.949 127.106 143.117 127.458 143.37C127.701 143.57 127.894 143.825 128.021 144.113L128.432 143.942C130.069 150.635 132.767 157.022 136.424 162.862C136.895 163.531 137.268 164.262 137.532 165.036C137.642 165.455 137.704 165.885 137.717 166.319C137.754 166.591 137.749 166.918 137.749 167.251Z" fill="#FF6F61"/>
<path d="M114.445 137.92C121.836 137.92 127.827 131.928 127.827 124.537C127.827 117.146 121.836 111.154 114.445 111.154C107.054 111.154 101.062 117.146 101.062 124.537C101.062 131.928 107.054 137.92 114.445 137.92Z" fill="#FBBEBE"/>
<path d="M90.6605 154.293C88.9346 156.918 88.3531 160.112 87.827 163.213L84.4768 182.641C84.0153 185.299 83.6046 188.22 84.9659 190.55C85.4274 191.339 86.0735 192.022 86.4103 192.858C86.6648 193.698 86.8319 194.563 86.9087 195.437C87.6932 199.89 92.0726 202.895 96.4658 203.975C98.0532 204.367 99.9083 204.519 101.159 203.462C102.543 202.313 102.543 200.126 101.727 198.548C100.91 196.969 99.4192 195.853 97.9748 194.796L93.1893 191.27L95.9582 170.043C96.1427 168.515 92.7971 151.035 90.6605 154.293Z" fill="#FBBEBE"/>
<path d="M145.215 154.791C145.945 157.998 146.318 161.284 147.232 164.44C147.587 165.682 148.03 166.895 148.335 168.132C148.662 169.602 148.895 171.091 149.032 172.59L150.329 184.062C150.478 184.771 150.422 185.507 150.167 186.185C149.814 186.775 149.294 187.247 148.672 187.542C144.934 189.643 140.542 190.261 136.369 189.272C135.409 188.985 134.432 188.757 133.443 188.589C131.865 188.391 130.259 188.709 128.667 188.589C125.437 188.344 122.599 186.332 120.361 183.997C119.013 182.613 117.79 180.343 119.046 178.857C119.396 178.498 119.832 178.234 120.312 178.089C120.792 177.943 121.301 177.922 121.791 178.026C122.769 178.245 123.711 178.598 124.592 179.074C127.682 180.502 130.986 181.411 134.371 181.764C136.678 182.008 139.613 181.616 140.412 179.42C140.799 178.354 140.527 177.172 140.255 176.069L138.021 167.001C137.929 166.688 144.486 151.588 145.215 154.791Z" fill="#FBBEBE"/>
<path d="M106.161 128.658C105.566 126.521 104.731 123.849 106.406 122.4C107.008 121.936 107.733 121.658 108.492 121.602C112.253 121.141 116.143 123.356 119.742 122.174C120.89 121.799 121.905 121.1 122.665 120.16C123.424 119.221 123.896 118.082 124.022 116.881C124.148 115.68 123.924 114.468 123.377 113.391C122.83 112.314 121.982 111.419 120.938 110.813C119.364 109.89 117.486 109.71 115.672 109.548C110.896 109.11 105.917 108.704 101.45 110.471C96.9826 112.239 93.217 116.789 94.14 121.501C94.5691 123.748 95.9582 125.681 97.3702 127.472C98.4547 128.833 102.806 135.317 104.555 135.225C107.02 135.086 106.549 130.047 106.161 128.658Z" fill="#3F3D56"/>
<path opacity="0.1" d="M120.938 110.813C120.671 110.659 120.393 110.525 120.107 110.411C120.917 111.147 121.52 112.082 121.856 113.123C122.191 114.165 122.247 115.276 122.018 116.346C121.789 117.416 121.283 118.407 120.551 119.22C119.819 120.033 118.886 120.64 117.846 120.979C114.246 122.16 110.356 119.945 106.595 120.407C105.837 120.463 105.111 120.74 104.509 121.205C102.834 122.654 103.669 125.326 104.265 127.463C104.652 128.847 105.123 133.891 102.668 134.029H102.626C103.388 134.772 104.075 135.257 104.565 135.229C107.02 135.091 106.549 130.052 106.161 128.663C105.566 126.526 104.731 123.854 106.406 122.405C107.008 121.94 107.733 121.663 108.492 121.607C112.253 121.145 116.143 123.36 119.742 122.179C120.89 121.804 121.905 121.104 122.665 120.165C123.424 119.226 123.896 118.087 124.022 116.886C124.148 115.684 123.924 114.472 123.377 113.395C122.83 112.319 121.982 111.423 120.938 110.817V110.813Z" fill="black"/>
<path d="M317.492 277.284H167.052V323.892H317.492V277.284Z" fill="#3F3D56"/>
<path d="M235.811 292.346V308.821L248.733 300.583L235.811 292.346Z" fill="white"/>
<path d="M120.444 15.75L113.282 20.2909L117.629 12.3859C116.397 11.4025 114.872 10.8584 113.296 10.84H113.18C112.683 10.8472 112.185 10.8102 111.694 10.7292L109.267 12.2659L110.31 10.3739C108.588 9.77482 107.101 8.64351 106.064 7.14359L101.717 9.91241L104.463 4.92391C101.92 1.87359 98.4962 0.00463867 94.7306 0.00463867C90.2128 0.00463867 86.1888 2.6904 83.5907 6.87593C82.8224 8.1327 81.7337 9.16256 80.4363 9.85994C79.1388 10.5573 77.6793 10.8971 76.2072 10.8446H75.9626C70.9741 10.8446 66.9316 16.4976 66.9316 23.475C66.9316 30.4525 70.9741 36.1055 75.9626 36.1055C77.06 36.1003 78.1398 35.8296 79.1098 35.3164C80.8069 34.4904 82.6633 34.0436 84.5503 34.0069C86.4373 33.9703 88.3096 34.3446 90.0375 35.1041C91.4994 35.7581 93.0829 36.0961 94.6845 36.0961C96.286 36.0961 97.8695 35.7581 99.3315 35.1041C101.047 34.3603 102.903 33.9943 104.772 34.0309C106.642 34.0676 108.482 34.5059 110.167 35.3164C111.127 35.8188 112.194 36.0831 113.277 36.087C118.266 36.087 122.308 30.4294 122.308 23.4566C122.342 20.7721 121.701 18.122 120.444 15.75Z" fill="#F2F2F2"/>
<path opacity="0.03" d="M106.941 34.2319C104.34 33.7386 101.651 34.031 99.2162 35.0718C97.7538 35.7244 96.1705 36.0616 94.5691 36.0616C92.9678 36.0616 91.3844 35.7244 89.9221 35.0718C88.1938 34.314 86.3213 33.9409 84.4345 33.9783C82.5476 34.0158 80.6915 34.4629 78.9945 35.2887C78.024 35.8 76.9443 36.0691 75.8473 36.0732C71.4172 36.0732 67.73 31.6108 66.964 25.7224C67.8472 25.075 68.5989 24.2653 69.179 23.3366C71.7771 19.1465 75.8011 16.4607 80.3189 16.4607C84.8367 16.4607 88.81 19.1141 91.3942 23.2582C92.1719 24.5045 93.2579 25.5293 94.5472 26.2333C95.8366 26.9374 97.2857 27.2971 98.7547 27.2776H98.8701C102.4 27.2776 105.455 30.1064 106.941 34.2319Z" fill="black"/>
<path d="M365.485 118.676L361.913 120.942L364.082 116.997C363.467 116.507 362.707 116.236 361.922 116.226H361.862C361.615 116.23 361.368 116.213 361.124 116.175L359.892 116.95L360.413 116.004C359.555 115.707 358.813 115.144 358.295 114.399L356.126 115.783L357.51 113.296C356.934 112.552 356.199 111.946 355.36 111.521C354.52 111.096 353.596 110.864 352.656 110.841C350.404 110.841 348.396 112.179 347.118 114.269C346.733 114.897 346.189 115.411 345.54 115.759C344.891 116.107 344.162 116.276 343.426 116.249H343.306C340.819 116.249 338.802 119.073 338.802 122.548C338.802 126.023 340.819 128.852 343.306 128.852C343.853 128.849 344.392 128.715 344.875 128.46C345.721 128.047 346.647 127.824 347.588 127.805C348.529 127.786 349.463 127.971 350.325 128.349C351.05 128.677 351.837 128.848 352.633 128.852C353.427 128.849 354.213 128.682 354.94 128.363C355.795 127.992 356.721 127.809 357.653 127.826C358.585 127.844 359.503 128.061 360.344 128.464C360.822 128.716 361.354 128.849 361.894 128.852C364.382 128.852 366.398 126.028 366.398 122.548C366.425 121.201 366.111 119.869 365.485 118.676Z" fill="#F2F2F2"/>
<path opacity="0.03" d="M358.733 127.896C357.434 127.647 356.09 127.794 354.875 128.316C354.149 128.64 353.363 128.807 352.568 128.807C351.773 128.807 350.987 128.64 350.261 128.316C349.398 127.94 348.465 127.754 347.524 127.772C346.583 127.791 345.658 128.012 344.811 128.423C344.327 128.68 343.789 128.816 343.242 128.819C341.031 128.819 339.195 126.591 338.812 123.656C339.252 123.333 339.627 122.929 339.914 122.465C341.211 120.375 343.219 119.036 345.452 119.036C347.686 119.036 349.688 120.361 350.99 122.423C351.378 123.051 351.922 123.566 352.569 123.92C353.216 124.273 353.944 124.453 354.682 124.44H354.737C356.467 124.426 357.995 125.838 358.733 127.896Z" fill="black"/>
<path d="M373.39 59.8342L379.126 63.4753L375.637 57.1393C376.624 56.3533 377.845 55.9182 379.107 55.9025H379.199C379.598 55.9085 379.997 55.8791 380.39 55.8148L382.337 57.047L381.502 55.5333C382.879 55.0503 384.069 54.1462 384.903 52.9491L388.387 55.1549L386.186 51.1586C388.221 48.7128 390.967 47.2177 393.985 47.2177C397.607 47.2177 400.829 49.3681 402.91 52.723C403.525 53.7269 404.396 54.55 405.432 55.1084C406.469 55.6669 407.635 55.9409 408.812 55.9025H409.006C413.002 55.9025 416.242 60.4342 416.242 66.0226C416.242 71.611 413.011 76.1426 409.006 76.1426C408.127 76.1381 407.263 75.9211 406.486 75.5104C405.125 74.8467 403.635 74.4877 402.121 74.4582C400.607 74.4287 399.104 74.7295 397.718 75.3397C396.547 75.8629 395.279 76.1333 393.996 76.1333C392.714 76.1333 391.446 75.8629 390.275 75.3397C388.901 74.7429 387.414 74.4488 385.917 74.4775C384.419 74.5061 382.945 74.8569 381.594 75.5058C380.823 75.9073 379.967 76.1193 379.098 76.1242C375.102 76.1242 371.862 71.5925 371.862 66.0041C371.847 63.8521 372.373 61.7308 373.39 59.8342Z" fill="#F2F2F2"/>
<path opacity="0.03" d="M384.202 74.6428C386.29 74.245 388.45 74.4796 390.404 75.3165C391.575 75.8397 392.843 76.1102 394.126 76.1102C395.408 76.1102 396.676 75.8397 397.847 75.3165C399.234 74.7083 400.737 74.409 402.251 74.4392C403.765 74.4695 405.254 74.8287 406.615 75.4919C407.392 75.9012 408.257 76.1165 409.135 76.1195C412.684 76.1195 415.637 72.5431 416.255 67.813C415.544 67.297 414.94 66.6464 414.479 65.8979C412.398 62.5476 409.172 60.3926 405.554 60.3926C401.936 60.3926 398.747 62.52 396.666 65.8379C396.044 66.8384 395.175 67.6615 394.141 68.2274C393.108 68.7933 391.946 69.0829 390.768 69.0682H390.676C387.843 69.0728 385.392 71.3387 384.202 74.6428Z" fill="black"/>
</g>
<defs>
<clipPath id="clip0">
<rect width="484.544" height="346.504" fill="white"/>
</clipPath>
</defs>
</svg>
