<svg width="15" height="19" viewBox="0 0 15 19" fill="none" xmlns="http://www.w3.org/2000/svg">
<path d="M13.9581 4.07667C12.6342 2.19146 10.2827 1.0397 7.66782 0.995687C7.55619 0.993788 7.44384 0.993788 7.33217 0.995687C4.71728 1.0397 2.36579 2.19146 1.04186 4.07667C-0.311388 6.00365 -0.348412 8.31834 0.942798 10.2685L6.35215 18.4383C6.35458 18.442 6.35701 18.4456 6.35952 18.4492C6.59752 18.7905 7.02388 18.9943 7.50008 18.9943C7.97624 18.9943 8.4026 18.7905 8.64055 18.4492C8.64306 18.4456 8.64549 18.442 8.64792 18.4383L14.0573 10.2685C15.3484 8.31834 15.3114 6.00365 13.9581 4.07667V4.07667ZM7.49999 9.15052C5.8085 9.15052 4.43238 8.01501 4.43238 6.61928C4.43238 5.22354 5.8085 4.08803 7.49999 4.08803C9.19149 4.08803 10.5676 5.22354 10.5676 6.61928C10.5676 8.01501 9.19153 9.15052 7.49999 9.15052Z" fill="white"/>
</svg>
