<svg width="20" height="17" viewBox="0 0 20 17" fill="none" xmlns="http://www.w3.org/2000/svg">
<path d="M12.311 11.463C12.311 11.7911 12.0453 12.0568 11.7173 12.0568H8.15479C7.82674 12.0568 7.56104 11.7911 7.56104 11.463V9.68176H0.436035V15.0255C0.436035 15.9755 1.26729 16.8068 2.21729 16.8068H17.6548C18.6048 16.8068 19.436 15.9755 19.436 15.0255V9.68176H12.311V11.463ZM17.6548 3.74426H14.686V1.96301C14.686 1.01301 13.8548 0.181763 12.9048 0.181763H6.96729C6.01729 0.181763 5.18604 1.01301 5.18604 1.96301V3.74426H2.21729C1.26729 3.74426 0.436035 4.57551 0.436035 5.52551V8.49426H19.436V5.52551C19.436 4.57551 18.6048 3.74426 17.6548 3.74426ZM12.311 3.74426H7.56104V2.55676H12.311V3.74426Z" fill="white"/>
</svg>
