<svg width="245" height="48" viewBox="0 0 245 48" fill="none" xmlns="http://www.w3.org/2000/svg">
<path d="M25.4047 32.098H12.617L10.1775 38H3.64588L15.9221 10.4571H22.2176L34.5332 38H27.8442L25.4047 32.098ZM23.398 27.2583L19.0305 16.7133L14.663 27.2583H23.398ZM48.2506 16.5166C50.8737 16.5166 52.9853 17.3035 54.5854 18.8774C56.2117 20.4513 57.0249 22.7858 57.0249 25.8811V38H50.8868V26.8255C50.8868 25.1467 50.5196 23.9007 49.7851 23.0875C49.0506 22.2481 47.9882 21.8284 46.598 21.8284C45.0503 21.8284 43.8175 22.3137 42.8994 23.2842C41.9813 24.2286 41.5222 25.6451 41.5222 27.5337V38H35.3841V16.8313H41.2468V19.3102C42.06 18.4183 43.0699 17.7363 44.2765 17.2642C45.4832 16.7658 46.8078 16.5166 48.2506 16.5166ZM81.642 16.8313L72.0807 39.2984C71.1101 41.738 69.9035 43.4561 68.4607 44.4529C67.0442 45.4497 65.3261 45.9481 63.3063 45.9481C62.2046 45.9481 61.116 45.7776 60.0405 45.4366C58.965 45.0956 58.0863 44.6234 57.4042 44.0201L59.647 39.6526C60.1192 40.0723 60.6569 40.4002 61.2602 40.6362C61.8898 40.8723 62.5062 40.9904 63.1096 40.9904C63.949 40.9904 64.631 40.7805 65.1556 40.3608C65.6802 39.9673 66.1524 39.2984 66.5721 38.3541L66.6508 38.1574L57.4829 16.8313H63.8178L69.7592 31.193L75.7399 16.8313H81.642ZM94.9277 10.4571C97.3672 10.4571 99.4788 10.8637 101.263 11.6769C103.073 12.4901 104.463 13.6442 105.433 15.1394C106.404 16.6346 106.889 18.4052 106.889 20.4513C106.889 22.4711 106.404 24.2417 105.433 25.7631C104.463 27.2583 103.073 28.4125 101.263 29.2256C99.4788 30.0126 97.3672 30.406 94.9277 30.406H89.3798V38H83.0056V10.4571H94.9277ZM94.5736 25.2122C96.4885 25.2122 97.9443 24.8057 98.9411 23.9925C99.9379 23.1531 100.436 21.9727 100.436 20.4513C100.436 18.9036 99.9379 17.7232 98.9411 16.91C97.9443 16.0706 96.4885 15.6509 94.5736 15.6509H89.3798V25.2122H94.5736ZM109.817 8.80457H115.956V38H109.817V8.80457ZM128.617 16.5166C131.896 16.5166 134.414 17.3035 136.171 18.8774C137.929 20.425 138.808 22.7727 138.808 25.9205V38H133.063V35.3638C131.909 37.3311 129.758 38.3148 126.61 38.3148C124.984 38.3148 123.567 38.0393 122.361 37.4885C121.18 36.9376 120.275 36.1769 119.646 35.2064C119.016 34.2358 118.701 33.1341 118.701 31.9012C118.701 29.9339 119.436 28.3862 120.905 27.2583C122.4 26.1303 124.695 25.5664 127.79 25.5664H132.669C132.669 24.2286 132.263 23.2056 131.45 22.4973C130.636 21.7628 129.417 21.3956 127.79 21.3956C126.662 21.3956 125.548 21.5792 124.446 21.9464C123.37 22.2875 122.452 22.7596 121.692 23.3629L119.488 19.0741C120.642 18.261 122.02 17.6314 123.62 17.1855C125.246 16.7395 126.912 16.5166 128.617 16.5166ZM128.145 34.1833C129.194 34.1833 130.125 33.9473 130.938 33.4751C131.751 32.9767 132.328 32.2553 132.669 31.311V29.1469H128.459C125.941 29.1469 124.682 29.9732 124.682 31.6258C124.682 32.4127 124.984 33.0423 125.587 33.5144C126.217 33.9604 127.069 34.1833 128.145 34.1833ZM153.25 38.3148C150.994 38.3148 148.961 37.8557 147.151 36.9376C145.367 35.9933 143.964 34.6949 142.941 33.0423C141.944 31.3897 141.446 29.5142 141.446 27.4157C141.446 25.3172 141.944 23.4416 142.941 21.7891C143.964 20.1365 145.367 18.8512 147.151 17.9331C148.961 16.9887 150.994 16.5166 153.25 16.5166C155.479 16.5166 157.42 16.9887 159.073 17.9331C160.752 18.8512 161.972 20.1758 162.732 21.9071L157.971 24.4647C156.87 22.5235 155.283 21.553 153.21 21.553C151.61 21.553 150.286 22.0776 149.236 23.1269C148.187 24.1761 147.662 25.6057 147.662 27.4157C147.662 29.2256 148.187 30.6552 149.236 31.7045C150.286 32.7537 151.61 33.2784 153.21 33.2784C155.309 33.2784 156.896 32.3078 157.971 30.3667L162.732 32.9636C161.972 34.6424 160.752 35.954 159.073 36.8983C157.42 37.8426 155.479 38.3148 153.25 38.3148ZM185.159 27.4944C185.159 27.5731 185.12 28.1239 185.041 29.1469H169.027C169.316 30.4585 169.998 31.4946 171.073 32.2553C172.149 33.0161 173.487 33.3964 175.087 33.3964C176.188 33.3964 177.159 33.239 177.998 32.9242C178.864 32.5832 179.664 32.0586 180.398 31.3504L183.664 34.8916C181.671 37.1737 178.759 38.3148 174.929 38.3148C172.542 38.3148 170.431 37.8557 168.594 36.9376C166.758 35.9933 165.342 34.6949 164.345 33.0423C163.348 31.3897 162.85 29.5142 162.85 27.4157C162.85 25.3434 163.335 23.481 164.306 21.8284C165.302 20.1496 166.653 18.8512 168.358 17.9331C170.09 16.9887 172.018 16.5166 174.142 16.5166C176.215 16.5166 178.09 16.9625 179.769 17.8544C181.448 18.7462 182.759 20.0316 183.704 21.7104C184.674 23.3629 185.159 25.2909 185.159 27.4944ZM174.182 21.1595C172.791 21.1595 171.624 21.553 170.68 22.3399C169.735 23.1269 169.158 24.2023 168.949 25.5664H179.375C179.166 24.2286 178.589 23.1662 177.644 22.3793C176.7 21.5661 175.546 21.1595 174.182 21.1595Z" fill="white"/>
<path d="M204.048 15.5722V22.8514H216.797V27.9665H204.048V38H197.674V10.4571H218.489V15.5722H204.048ZM220.413 16.8313H226.551V38H220.413V16.8313ZM223.482 13.8803C222.354 13.8803 221.436 13.5524 220.728 12.8967C220.02 12.2409 219.665 11.4277 219.665 10.4571C219.665 9.48658 220.02 8.67341 220.728 8.01763C221.436 7.36185 222.354 7.03396 223.482 7.03396C224.61 7.03396 225.528 7.34873 226.236 7.97829C226.945 8.60784 227.299 9.39477 227.299 10.3391C227.299 11.3621 226.945 12.2146 226.236 12.8967C225.528 13.5524 224.61 13.8803 223.482 13.8803ZM244.327 36.977C243.724 37.4229 242.977 37.7639 242.085 38C241.219 38.2099 240.301 38.3148 239.33 38.3148C236.812 38.3148 234.858 37.6721 233.468 36.3868C232.104 35.1014 231.422 33.2128 231.422 30.7208V22.0251H228.156V17.3035H231.422V12.1491H237.56V17.3035H242.832V22.0251H237.56V30.6421C237.56 31.534 237.783 32.2291 238.229 32.7275C238.701 33.1997 239.357 33.4358 240.196 33.4358C241.167 33.4358 241.993 33.1734 242.675 32.6488L244.327 36.977Z" fill="#FF9900"/>
<path d="M2.03265 44.2654H36.9531" stroke="#FF9900" stroke-width="2.88571" stroke-linecap="round" stroke-linejoin="round"/>
</svg>
