<svg width="250" height="48" viewBox="0 0 250 48" fill="none" xmlns="http://www.w3.org/2000/svg">
<path d="M25.8488 32.9755H12.7958L10.3056 39H3.63853L16.1695 10.8857H22.5956L35.1667 39H28.3389L25.8488 32.9755ZM23.8005 28.0354L19.3424 17.2717L14.8842 28.0354H23.8005ZM49.1686 17.0709C51.8462 17.0709 54.0016 17.8741 55.6349 19.4807C57.295 21.0872 58.125 23.4702 58.125 26.6297V39H51.8596V27.5936C51.8596 25.88 51.4847 24.6082 50.735 23.7781C49.9853 22.9213 48.9009 22.4929 47.4818 22.4929C45.902 22.4929 44.6436 22.9882 43.7064 23.9789C42.7693 24.9429 42.3007 26.3887 42.3007 28.3166V39H36.0352V17.3922H42.0196V19.9224C42.8496 19.0121 43.8804 18.3159 45.1121 17.834C46.3438 17.3252 47.696 17.0709 49.1686 17.0709ZM83.2528 17.3922L73.4931 40.3254C72.5024 42.8155 71.2708 44.5693 69.7981 45.5868C68.3522 46.6042 66.5984 47.113 64.5367 47.113C63.4121 47.113 62.301 46.9389 61.2032 46.5909C60.1054 46.2428 59.2084 45.7608 58.5122 45.145L60.8015 40.6869C61.2835 41.1153 61.8324 41.45 62.4482 41.6909C63.0908 41.9319 63.7201 42.0524 64.3359 42.0524C65.1927 42.0524 65.8889 41.8382 66.4244 41.4098C66.9599 41.0082 67.4419 40.3254 67.8703 39.3615L67.9506 39.1607L58.5925 17.3922H65.0588L71.1235 32.0518L77.2283 17.3922H83.2528ZM96.8142 10.8857C99.3043 10.8857 101.46 11.3007 103.28 12.1308C105.128 12.9608 106.547 14.1389 107.538 15.6651C108.528 17.1913 109.024 18.9987 109.024 21.0872C109.024 23.1489 108.528 24.9562 107.538 26.5092C106.547 28.0354 105.128 29.2136 103.28 30.0436C101.46 30.8469 99.3043 31.2485 96.8142 31.2485H91.1511V39H84.6447V10.8857H96.8142ZM96.4527 25.9469C98.4073 25.9469 99.8934 25.5319 100.911 24.7019C101.928 23.8451 102.437 22.6402 102.437 21.0872C102.437 19.5074 101.928 18.3025 100.911 17.4725C99.8934 16.6157 98.4073 16.1873 96.4527 16.1873H91.1511V25.9469H96.4527ZM112.013 9.19886H118.278V39H112.013V9.19886ZM131.202 17.0709C134.549 17.0709 137.119 17.8741 138.913 19.4807C140.707 21.0604 141.604 23.4568 141.604 26.6699V39H135.741V36.3091C134.562 38.3172 132.367 39.3213 129.154 39.3213C127.494 39.3213 126.048 39.0402 124.816 38.4779C123.611 37.9156 122.687 37.1391 122.045 36.1484C121.402 35.1577 121.081 34.0331 121.081 32.7747C121.081 30.7665 121.831 29.1868 123.33 28.0354C124.856 26.8841 127.199 26.3084 130.359 26.3084H135.339C135.339 24.9429 134.924 23.8986 134.094 23.1757C133.264 22.426 132.019 22.0511 130.359 22.0511C129.207 22.0511 128.069 22.2385 126.945 22.6134C125.847 22.9615 124.91 23.4434 124.133 24.0593L121.884 19.6815C123.062 18.8514 124.468 18.2088 126.101 17.7536C127.761 17.2984 129.462 17.0709 131.202 17.0709ZM130.72 35.1042C131.791 35.1042 132.742 34.8632 133.572 34.3812C134.402 33.8725 134.991 33.1362 135.339 32.1722V29.9633H131.041C128.471 29.9633 127.186 30.8067 127.186 32.4936C127.186 33.2968 127.494 33.9394 128.11 34.4214C128.752 34.8766 129.622 35.1042 130.72 35.1042ZM156.346 39.3213C154.043 39.3213 151.968 38.8527 150.121 37.9156C148.3 36.9517 146.868 35.6263 145.823 33.9394C144.806 32.2526 144.297 30.3381 144.297 28.1961C144.297 26.054 144.806 24.1396 145.823 22.4527C146.868 20.7659 148.3 19.4539 150.121 18.5167C151.968 17.5528 154.043 17.0709 156.346 17.0709C158.622 17.0709 160.603 17.5528 162.29 18.5167C164.004 19.4539 165.249 20.806 166.026 22.5732L161.166 25.1838C160.041 23.2024 158.421 22.2118 156.306 22.2118C154.673 22.2118 153.321 22.7473 152.25 23.8183C151.178 24.8893 150.643 26.3486 150.643 28.1961C150.643 30.0436 151.178 31.5029 152.25 32.5739C153.321 33.6449 154.673 34.1804 156.306 34.1804C158.448 34.1804 160.068 33.1897 161.166 31.2083L166.026 33.8591C165.249 35.5727 164.004 36.9115 162.29 37.8754C160.603 38.8393 158.622 39.3213 156.346 39.3213ZM188.918 28.2764C188.918 28.3567 188.878 28.919 188.797 29.9633H172.451C172.746 31.302 173.442 32.3597 174.54 33.1362C175.637 33.9127 177.003 34.3009 178.636 34.3009C179.761 34.3009 180.751 34.1402 181.608 33.8189C182.492 33.4709 183.308 32.9353 184.058 32.2124L187.392 35.8271C185.357 38.1566 182.385 39.3213 178.476 39.3213C176.039 39.3213 173.884 38.8527 172.009 37.9156C170.135 36.9517 168.689 35.6263 167.672 33.9394C166.654 32.2526 166.145 30.3381 166.145 28.1961C166.145 26.0808 166.641 24.1798 167.631 22.4929C168.649 20.7793 170.028 19.4539 171.768 18.5167C173.535 17.5528 175.503 17.0709 177.672 17.0709C179.788 17.0709 181.702 17.526 183.416 18.4364C185.129 19.3468 186.468 20.6588 187.432 22.3724C188.423 24.0593 188.918 26.0273 188.918 28.2764ZM177.712 21.8101C176.293 21.8101 175.102 22.2118 174.138 23.015C173.174 23.8183 172.585 24.9161 172.371 26.3084H183.014C182.8 24.9429 182.211 23.8584 181.247 23.0552C180.283 22.2251 179.105 21.8101 177.712 21.8101Z" fill="black"/>
<path d="M208.199 16.1069V23.5371H221.212V28.7584H208.199V39H201.692V10.8857H222.939V16.1069H208.199ZM224.903 17.3922H231.168V39H224.903V17.3922ZM228.036 14.3799C226.884 14.3799 225.947 14.0452 225.224 13.3758C224.501 12.7064 224.14 11.8764 224.14 10.8857C224.14 9.89502 224.501 9.06498 225.224 8.39559C225.947 7.7262 226.884 7.39151 228.036 7.39151C229.187 7.39151 230.124 7.71281 230.847 8.35543C231.57 8.99804 231.932 9.80131 231.932 10.7652C231.932 11.8095 231.57 12.6797 230.847 13.3758C230.124 14.0452 229.187 14.3799 228.036 14.3799ZM249.313 37.9558C248.698 38.4109 247.935 38.759 247.024 39C246.141 39.2142 245.203 39.3213 244.213 39.3213C241.642 39.3213 239.647 38.6653 238.228 37.3533C236.836 36.0413 236.14 34.1135 236.14 31.5698V22.6937H232.806V17.8741H236.14V12.6127H242.405V17.8741H247.787V22.6937H242.405V31.4895C242.405 32.3998 242.633 33.1094 243.088 33.6181C243.57 34.1001 244.239 34.3411 245.096 34.3411C246.087 34.3411 246.93 34.0733 247.627 33.5378L249.313 37.9558Z" fill="#FF9900"/>
<path d="M2.03076 44.3077H36.9846" stroke="#FF9900" stroke-width="2.94558" stroke-linecap="round" stroke-linejoin="round"/>
</svg>
