<svg width="592" height="385" viewBox="0 0 592 385" fill="none" xmlns="http://www.w3.org/2000/svg">
<g clip-path="url(#clip0)">
<path d="M453.549 363.903L484.37 318.069L453.612 368.833L453.676 373.991C451.426 374.008 449.198 373.971 446.992 373.878L448.52 307.583L448.478 307.071L448.535 306.973L448.681 300.708L414.929 251.703L448.641 296.019L448.761 297.344L449.916 247.255L420.763 196.448L449.999 238.455L449.693 134.684L449.694 134.339L449.704 134.678L451.639 216.464L478.209 183.243L451.726 223.51L452.306 268.313L476.756 224.587L452.396 274.9L452.719 299.813L488.275 238.903L452.827 308.504L453.549 363.903Z" fill="#E6E6E6"/>
<path d="M557.274 365.346L588.095 319.513L557.337 370.277L557.401 375.435C555.151 375.452 552.923 375.414 550.717 375.322L552.245 309.027L552.204 308.515L552.26 308.416L552.406 302.152L518.654 253.147L552.366 297.463L552.486 298.787L553.641 248.698L524.488 197.892L553.724 239.899L553.419 136.128L553.419 135.782L553.429 136.122L555.364 217.908L581.934 184.686L555.451 224.954L556.031 269.757L580.481 226.031L556.121 276.344L556.444 301.257L592 240.346L556.552 309.948L557.274 365.346Z" fill="#E6E6E6"/>
<path d="M245.47 0H61.0344V249.471H245.47V0Z" fill="#E6E6E6"/>
<path d="M238.97 8.79089H67.5335V240.68H238.97V8.79089Z" fill="white"/>
<path d="M216.436 49.4636H90.6169C89.5978 49.4623 88.6208 49.0565 87.9006 48.3354C87.1805 47.6143 86.776 46.6368 86.776 45.6176C86.776 44.5985 87.1805 43.621 87.9006 42.8999C88.6208 42.1787 89.5978 41.7729 90.6169 41.7716H216.436C216.942 41.7709 217.443 41.8699 217.91 42.0629C218.377 42.2559 218.802 42.5391 219.159 42.8963C219.517 43.2535 219.801 43.6777 219.994 44.1446C220.188 44.6116 220.287 45.1121 220.287 45.6176C220.287 46.1231 220.188 46.6236 219.994 47.0906C219.801 47.5575 219.517 47.9817 219.159 48.3389C218.802 48.6962 218.377 48.9793 217.91 49.1723C217.443 49.3653 216.942 49.4643 216.436 49.4636Z" fill="#E6E6E6"/>
<path d="M216.436 89.0225H90.6169C89.5978 89.0212 88.6208 88.6154 87.9006 87.8943C87.1805 87.1731 86.776 86.1957 86.776 85.1765C86.776 84.1574 87.1805 83.1799 87.9006 82.4588C88.6208 81.7376 89.5978 81.3318 90.6169 81.3305H216.436C216.942 81.3298 217.443 81.4288 217.91 81.6218C218.377 81.8148 218.802 82.098 219.159 82.4552C219.517 82.8124 219.801 83.2366 219.994 83.7035C220.188 84.1705 220.287 84.671 220.287 85.1765C220.287 85.682 220.188 86.1825 219.994 86.6495C219.801 87.1164 219.517 87.5406 219.159 87.8978C218.802 88.255 218.377 88.5382 217.91 88.7312C217.443 88.9242 216.942 89.0232 216.436 89.0225Z" fill="#E6E6E6"/>
<path d="M216.436 128.581H90.6169C89.5978 128.58 88.6208 128.174 87.9006 127.453C87.1805 126.732 86.776 125.755 86.776 124.735C86.776 123.716 87.1805 122.739 87.9006 122.018C88.6208 121.297 89.5978 120.891 90.6169 120.889H216.436C216.942 120.889 217.443 120.988 217.91 121.181C218.377 121.374 218.802 121.657 219.159 122.014C219.517 122.371 219.801 122.796 219.994 123.263C220.188 123.729 220.287 124.23 220.287 124.735C220.287 125.241 220.188 125.742 219.994 126.208C219.801 126.675 219.517 127.1 219.159 127.457C218.802 127.814 218.377 128.097 217.91 128.29C217.443 128.483 216.942 128.582 216.436 128.581Z" fill="#E6E6E6"/>
<path d="M216.436 168.141H90.6169C89.5978 168.139 88.6208 167.733 87.9006 167.012C87.1805 166.291 86.776 165.314 86.776 164.294C86.776 163.275 87.1805 162.298 87.9006 161.577C88.6208 160.856 89.5978 160.45 90.6169 160.448H216.436C216.942 160.448 217.443 160.547 217.91 160.74C218.377 160.933 218.802 161.216 219.159 161.573C219.517 161.93 219.801 162.355 219.994 162.822C220.188 163.288 220.287 163.789 220.287 164.294C220.287 164.8 220.188 165.301 219.994 165.767C219.801 166.234 219.517 166.659 219.159 167.016C218.802 167.373 218.377 167.656 217.91 167.849C217.443 168.042 216.942 168.141 216.436 168.141Z" fill="#E6E6E6"/>
<path d="M216.436 207.699H90.6169C89.5978 207.698 88.6208 207.292 87.9006 206.571C87.1805 205.85 86.776 204.873 86.776 203.853C86.776 202.834 87.1805 201.857 87.9006 201.136C88.6208 200.415 89.5978 200.009 90.6169 200.007H216.436C216.942 200.007 217.443 200.106 217.91 200.299C218.377 200.492 218.802 200.775 219.159 201.132C219.517 201.489 219.801 201.914 219.994 202.38C220.188 202.847 220.287 203.348 220.287 203.853C220.287 204.359 220.188 204.859 219.994 205.326C219.801 205.793 219.517 206.218 219.159 206.575C218.802 206.932 218.377 207.215 217.91 207.408C217.443 207.601 216.942 207.7 216.436 207.699Z" fill="#E6E6E6"/>
<path d="M194.459 49.4636H90.0675C89.562 49.4643 89.0614 49.3653 88.5942 49.1723C88.127 48.9793 87.7024 48.6962 87.3447 48.3389C86.987 47.9817 86.7033 47.5575 86.5097 47.0906C86.3161 46.6236 86.2164 46.1231 86.2164 45.6176C86.2164 45.1121 86.3161 44.6116 86.5097 44.1446C86.7033 43.6777 86.987 43.2535 87.3447 42.8963C87.7024 42.5391 88.127 42.2559 88.5942 42.0629C89.0614 41.8699 89.562 41.7709 90.0675 41.7716H194.459C195.478 41.7729 196.455 42.1787 197.175 42.8999C197.896 43.621 198.3 44.5985 198.3 45.6176C198.3 46.6368 197.896 47.6143 197.175 48.3354C196.455 49.0565 195.478 49.4623 194.459 49.4636Z" fill="#FF9900"/>
<path d="M162.043 89.0225H90.0675C89.0475 89.0225 88.0692 88.6173 87.348 87.896C86.6267 87.1748 86.2215 86.1965 86.2215 85.1765C86.2215 84.1565 86.6267 83.1782 87.348 82.457C88.0692 81.7357 89.0475 81.3305 90.0675 81.3305H162.043C162.548 81.3298 163.049 81.4288 163.516 81.6218C163.983 81.8148 164.408 82.098 164.766 82.4552C165.123 82.8124 165.407 83.2366 165.601 83.7035C165.794 84.1705 165.894 84.671 165.894 85.1765C165.894 85.682 165.794 86.1825 165.601 86.6495C165.407 87.1164 165.123 87.5406 164.766 87.8978C164.408 88.255 163.983 88.5382 163.516 88.7312C163.049 88.9242 162.548 89.0232 162.043 89.0225Z" fill="#FF9900"/>
<path d="M122.484 128.581H90.0675C89.562 128.582 89.0614 128.483 88.5942 128.29C88.127 128.097 87.7024 127.814 87.3447 127.457C86.987 127.1 86.7033 126.675 86.5097 126.208C86.3161 125.742 86.2164 125.241 86.2164 124.735C86.2164 124.23 86.3161 123.729 86.5097 123.263C86.7033 122.796 86.987 122.371 87.3447 122.014C87.7024 121.657 88.127 121.374 88.5942 121.181C89.0614 120.988 89.562 120.889 90.0675 120.889H122.484C123.503 120.891 124.48 121.297 125.2 122.018C125.92 122.739 126.325 123.716 126.325 124.735C126.325 125.755 125.92 126.732 125.2 127.453C124.48 128.174 123.503 128.58 122.484 128.581Z" fill="#FF9900"/>
<path d="M204.349 168.141H90.0675C89.0475 168.141 88.0692 167.735 87.348 167.014C86.6267 166.293 86.2215 165.315 86.2215 164.294C86.2215 163.274 86.6267 162.296 87.348 161.575C88.0692 160.854 89.0475 160.448 90.0675 160.448H204.349C205.369 160.448 206.347 160.854 207.069 161.575C207.79 162.296 208.195 163.274 208.195 164.294C208.195 165.315 207.79 166.293 207.069 167.014C206.347 167.735 205.369 168.141 204.349 168.141Z" fill="#FF9900"/>
<path d="M179.075 207.699H90.0675C89.562 207.7 89.0614 207.601 88.5942 207.408C88.127 207.215 87.7024 206.932 87.3447 206.575C86.987 206.218 86.7033 205.793 86.5097 205.326C86.3161 204.859 86.2164 204.359 86.2164 203.853C86.2164 203.348 86.3161 202.847 86.5097 202.38C86.7033 201.914 86.987 201.489 87.3447 201.132C87.7024 200.775 88.127 200.492 88.5942 200.299C89.0614 200.106 89.562 200.007 90.0675 200.007H179.075C179.581 200.007 180.081 200.106 180.549 200.299C181.016 200.492 181.44 200.775 181.798 201.132C182.156 201.489 182.439 201.914 182.633 202.38C182.827 202.847 182.926 203.348 182.926 203.853C182.926 204.359 182.827 204.859 182.633 205.326C182.439 205.793 182.156 206.218 181.798 206.575C181.44 206.932 181.016 207.215 180.549 207.408C180.081 207.601 179.581 207.7 179.075 207.699Z" fill="#FF9900"/>
<path d="M589.114 373.995H0V375.322H589.114V373.995Z" fill="#3F3D56"/>
<path d="M335.681 179.725C335.681 179.725 331.511 149.145 324.561 157.485C317.611 165.825 324.561 178.335 324.561 178.335L330.121 185.284L335.681 181.115V179.725Z" fill="#9F616A"/>
<path d="M352.361 189.454C352.361 189.454 338.461 174.165 335.681 176.945C332.901 179.725 324.561 181.115 325.951 186.674C327.341 192.234 356.53 210.304 356.53 210.304L352.361 189.454Z" fill="#FF9900"/>
<path opacity="0.1" d="M352.361 189.454C352.361 189.454 338.461 174.165 335.681 176.945C332.901 179.725 324.561 181.115 325.951 186.674C327.341 192.234 356.53 210.304 356.53 210.304L352.361 189.454Z" fill="black"/>
<path d="M431.589 188.064V199.184C431.589 199.184 432.979 224.204 424.639 222.814C416.299 221.424 420.469 200.574 420.469 200.574L421.859 188.064L431.589 188.064Z" fill="#9F616A"/>
<path d="M427.419 268.682C427.419 268.682 439.928 288.142 444.098 289.532C448.268 290.922 470.507 303.431 473.287 315.941L492.747 340.961L483.017 353.47C483.017 353.47 438.538 306.211 426.029 302.042C413.519 297.872 401.009 277.022 401.009 277.022L427.419 268.682Z" fill="#9F616A"/>
<path d="M328.731 236.713C328.731 236.713 302.322 240.883 306.492 257.563C310.662 274.242 350.971 308.991 350.971 308.991L352.361 317.331L367.65 320.111L374.6 313.161L373.21 308.991C373.21 308.991 356.53 293.702 355.141 288.142C353.751 282.582 338.461 260.343 331.511 258.953L341.241 253.393L328.731 236.713Z" fill="#9F616A"/>
<path d="M488.577 340.96C488.577 340.96 483.017 332.621 491.357 334.011C499.697 335.401 505.257 336.791 505.257 342.35C505.257 347.91 498.307 386.829 489.967 384.049C481.627 381.269 488.577 368.76 488.577 368.76C488.577 368.76 484.407 357.64 481.627 356.25C478.847 354.86 478.847 347.91 481.627 347.91C484.407 347.91 489.967 343.74 488.577 340.96Z" fill="#2F2E41"/>
<path d="M370.43 310.381C370.43 310.381 370.43 303.431 375.99 310.381C381.55 317.331 384.33 322.891 378.77 327.061C373.21 331.231 353.751 340.961 353.751 340.961C353.751 340.961 332.901 345.13 335.681 335.401C335.681 335.401 349.581 328.451 349.581 322.891C349.581 317.331 349.581 307.601 353.751 310.381C357.92 313.161 370.43 314.551 370.43 310.381Z" fill="#2F2E41"/>
<path d="M396.839 206.134C396.839 206.134 416.299 208.914 414.909 236.713C414.909 236.713 439.928 261.732 432.978 270.072C426.029 278.412 410.739 293.702 405.179 289.532C399.619 285.362 382.94 253.393 382.94 253.393C382.94 253.393 344.021 267.292 337.071 260.343C330.121 253.393 323.171 236.713 323.171 236.713L357.92 218.644L396.839 206.134Z" fill="#2F2E41"/>
<path d="M342.631 126.906C351.843 126.906 359.31 119.438 359.31 110.226C359.31 101.015 351.843 93.5468 342.631 93.5468C333.419 93.5468 325.951 101.015 325.951 110.226C325.951 119.438 333.419 126.906 342.631 126.906Z" fill="#9F616A"/>
<path d="M355.14 111.616C355.14 111.616 364.87 126.906 367.65 128.296C370.43 129.686 348.191 143.586 348.191 143.586C348.191 143.586 348.191 125.516 341.241 121.346L355.14 111.616Z" fill="#9F616A"/>
<path d="M356.53 126.906C356.53 126.906 378.77 119.956 382.94 131.076C387.11 142.196 396.839 163.045 395.449 176.945C394.06 190.844 391.28 188.064 395.449 192.234C399.619 196.404 402.399 193.624 401.009 199.184C399.619 204.744 398.229 204.744 399.619 207.524C401.009 210.304 382.94 220.034 367.65 221.424L352.361 222.814C352.361 222.814 352.361 197.794 349.581 192.234C346.801 186.674 341.241 175.555 341.241 171.385V160.352C341.241 153.008 343.157 145.792 346.801 139.416C346.801 139.416 355.14 126.906 356.53 126.906Z" fill="#FF9900"/>
<path d="M373.21 132.466C373.21 132.466 424.639 136.636 430.199 150.535C435.758 164.435 438.538 192.234 432.979 192.234C427.419 192.234 420.469 195.014 419.079 192.234C417.689 189.454 412.129 161.655 410.739 161.655C409.349 161.655 367.65 157.485 367.65 157.485C367.65 157.485 349.581 135.246 373.21 132.466Z" fill="#FF9900"/>
<path d="M341.961 106.091C341.961 106.091 337.534 98.3992 332.002 105.08C326.469 111.762 317.468 99.4838 318.85 96.8639C320.232 94.244 325.111 96.9817 333.473 94.2481C341.835 91.5146 357.943 85.9458 360.641 104.111C363.338 122.277 356.913 120.372 356.913 120.372C356.913 120.372 353.968 104.276 351.307 108.9L348.645 113.523L346.336 114.091L341.961 106.091Z" fill="#2F2E41"/>
</g>
<defs>
<clipPath id="clip0">
<rect width="592" height="384.191" fill="white"/>
</clipPath>
</defs>
</svg>
