<svg width="488" height="390" viewBox="0 0 488 390" fill="none" xmlns="http://www.w3.org/2000/svg">
<g clip-path="url(#clip0)">
<path d="M402.879 348.495C402.917 348.433 402.958 348.372 403.002 348.313C403.11 348.058 403.247 347.815 403.409 347.59L416.888 328.733L427.994 313.202H446.937L445.597 315.072L443.213 318.409L435.826 328.738L419.995 350.879L434.669 380.355C435.269 381.555 434.245 383.28 432.397 384.202L425.32 387.727C424.618 388.085 423.843 388.279 423.054 388.294C422.058 388.294 421.227 387.925 420.879 387.223L402.638 350.579C402.494 350.241 402.441 349.871 402.483 349.506C402.525 349.14 402.662 348.792 402.879 348.495Z" fill="#FF9900"/>
<path d="M428.37 347.366L409.287 340.276C408.422 339.953 407.72 339.3 407.335 338.461C406.951 337.622 406.915 336.664 407.235 335.798L412.833 320.733C413.156 319.868 413.808 319.166 414.647 318.782C415.487 318.397 416.444 318.361 417.31 318.682L436.393 325.772C437.258 326.094 437.96 326.747 438.344 327.586C438.729 328.426 438.765 329.383 438.444 330.249L432.847 345.315C432.687 345.743 432.445 346.136 432.134 346.471C431.823 346.807 431.449 347.077 431.033 347.268C430.617 347.458 430.168 347.565 429.711 347.582C429.254 347.599 428.798 347.525 428.37 347.366H428.37Z" fill="#2F2E41"/>
<path d="M412.143 338.991C412.014 338.991 411.886 338.968 411.766 338.922H411.766C411.5 338.822 411.285 338.62 411.168 338.361C411.051 338.102 411.042 337.807 411.142 337.541L418.149 318.999C418.249 318.733 418.451 318.518 418.71 318.401C418.969 318.284 419.264 318.275 419.53 318.375C419.796 318.476 420.011 318.678 420.128 318.937C420.244 319.196 420.254 319.491 420.153 319.757L413.147 338.299C413.069 338.502 412.932 338.678 412.753 338.801C412.573 338.925 412.361 338.991 412.143 338.991Z" fill="white"/>
<path d="M442.935 385.536V318.564C442.933 318.502 442.937 318.44 442.946 318.378C442.979 317.601 443.238 316.851 443.691 316.219C444.144 315.587 444.773 315.102 445.498 314.823C445.961 314.639 446.455 314.545 446.953 314.547H454.86C455.925 314.548 456.947 314.971 457.7 315.725C458.453 316.478 458.877 317.499 458.878 318.564V385.536C458.877 386.601 458.453 387.622 457.7 388.375C456.947 389.129 455.925 389.552 454.86 389.553H446.953C445.887 389.552 444.866 389.129 444.113 388.375C443.36 387.622 442.936 386.601 442.935 385.536Z" fill="#FF9900"/>
<path d="M438.644 343.738V327.666C438.645 326.743 439.012 325.858 439.665 325.205C440.318 324.553 441.203 324.185 442.126 324.184H462.483C463.407 324.185 464.292 324.553 464.945 325.205C465.597 325.858 465.965 326.743 465.966 327.666V343.738C465.965 344.661 465.597 345.547 464.945 346.199C464.292 346.852 463.407 347.219 462.483 347.22H442.126C441.203 347.219 440.318 346.852 439.665 346.199C439.012 345.547 438.645 344.661 438.644 343.738Z" fill="#2F2E41"/>
<path d="M454.22 345.524C453.936 345.524 453.663 345.411 453.463 345.21C453.262 345.009 453.149 344.737 453.148 344.453V324.631C453.148 324.347 453.261 324.074 453.462 323.873C453.663 323.672 453.936 323.559 454.22 323.559C454.504 323.559 454.777 323.672 454.977 323.873C455.178 324.074 455.291 324.347 455.291 324.631V344.453C455.291 344.737 455.178 345.009 454.977 345.21C454.776 345.411 454.504 345.524 454.22 345.524Z" fill="white"/>
<path d="M417.611 267.625L359.036 237.426C358.091 236.936 357.378 236.091 357.054 235.077C356.73 234.062 356.821 232.961 357.308 232.013L360.929 224.984C361.42 224.039 362.265 223.327 363.279 223.003C364.293 222.679 365.394 222.77 366.342 223.257L424.919 253.456C425.213 253.607 425.486 253.795 425.732 254.017C426.405 254.607 426.86 255.405 427.026 256.285C427.192 257.164 427.058 258.074 426.646 258.868L423.024 265.897C422.783 266.367 422.451 266.784 422.048 267.125C421.644 267.466 421.178 267.724 420.674 267.884C420.276 268.008 419.861 268.072 419.443 268.072C418.806 268.072 418.178 267.918 417.611 267.625Z" fill="#FF9900"/>
<path d="M418.75 269.361L390.272 258.117C389.321 257.639 388.598 256.804 388.262 255.794C387.926 254.784 388.004 253.682 388.479 252.73L394.973 239.345C395.453 238.395 396.288 237.673 397.298 237.335C397.806 237.168 398.342 237.103 398.875 237.145C399.408 237.187 399.928 237.335 400.403 237.58L426.12 253.17C426.22 253.22 426.312 253.284 426.394 253.361C427.049 253.95 427.376 255.367 427.638 256.503L427.679 256.68C427.751 256.985 427.813 257.248 427.876 257.433L427.897 257.503C427.92 257.578 427.943 257.656 427.959 257.727C428.189 258.655 428.079 259.635 427.649 260.489L424.103 267.555C423.764 268.221 423.249 268.78 422.613 269.172C421.977 269.564 421.245 269.773 420.499 269.776C419.891 269.777 419.292 269.635 418.75 269.361Z" fill="#2F2E41"/>
<path d="M439.757 232.681C455.592 232.681 468.428 219.844 468.428 204.009C468.428 188.174 455.592 175.338 439.757 175.338C423.922 175.338 411.085 188.174 411.085 204.009C411.085 219.844 423.922 232.681 439.757 232.681Z" fill="#FF9900"/>
<path d="M441.431 219.457L441.461 218.386C439.467 218.33 437.71 218.205 436.389 217.241C436.015 216.952 435.707 216.585 435.487 216.167C435.267 215.748 435.14 215.287 435.114 214.815C435.091 214.526 435.134 214.236 435.241 213.967C435.348 213.698 435.516 213.458 435.731 213.264C436.608 212.524 438.018 212.763 439.046 213.235L439.933 213.641L438.233 201.218L437.171 201.363L438.617 211.931C437.221 211.52 435.926 211.697 435.04 212.446C434.699 212.743 434.432 213.115 434.259 213.532C434.086 213.95 434.012 214.402 434.043 214.852C434.074 215.487 434.244 216.107 434.54 216.669C434.836 217.231 435.252 217.721 435.757 218.106C437.454 219.346 439.659 219.408 441.431 219.457Z" fill="#2F2E41"/>
<path d="M431.922 202.274H426.151V203.346H431.922V202.274Z" fill="#2F2E41"/>
<path d="M450.136 202.274H444.366V203.346H450.136V202.274Z" fill="#2F2E41"/>
<path d="M413.62 328.992C411.727 328.883 410.25 325.77 410.25 321.866V271.683C410.25 269.239 410.557 266.805 411.164 264.438L411.164 264.437C411.385 263.586 411.647 262.74 411.943 261.923C413.741 256.898 416.898 252.469 421.063 249.131C421.534 248.747 422.026 248.375 422.525 248.026C424.951 246.314 427.627 244.989 430.459 244.097C430.381 243.744 430.341 243.383 430.34 243.022C430.341 241.673 430.878 240.379 431.832 239.425C432.786 238.471 434.08 237.934 435.429 237.932H442.93C444.279 237.934 445.572 238.471 446.527 239.425C447.481 240.379 448.017 241.673 448.019 243.022C448.018 243.383 447.978 243.742 447.9 244.095C453.762 245.951 458.881 249.625 462.514 254.586C466.148 259.546 468.107 265.534 468.109 271.683V321.866C468.109 325.87 466.579 329.006 464.626 329.006H413.732C413.695 329.007 413.657 329.002 413.62 328.992Z" fill="#2F2E41"/>
<path d="M446.751 333.573C446.418 332.989 446.237 332.33 446.224 331.657L445.097 265.767C445.088 265.239 445.182 264.715 445.376 264.223C445.569 263.732 445.858 263.284 446.225 262.905L446.226 262.904C446.592 262.524 447.03 262.221 447.513 262.01C447.997 261.8 448.518 261.687 449.045 261.677L456.952 261.545C457.949 261.527 458.916 261.88 459.666 262.536C460.417 263.191 460.896 264.102 461.012 265.092C461.029 265.224 461.038 265.356 461.038 265.489L462.17 331.384C462.185 332.45 461.778 333.477 461.037 334.243C460.296 335.008 459.283 335.449 458.218 335.469L450.313 335.605C449.592 335.616 448.881 335.433 448.255 335.076C447.628 334.718 447.109 334.199 446.751 333.573V333.573Z" fill="#FF9900"/>
<path d="M443.428 288.325C443.129 287.798 442.952 287.211 442.911 286.606L443.249 256.079C443.167 255.017 443.51 253.965 444.202 253.156C444.894 252.346 445.879 251.843 446.941 251.759L454.823 251.142C455.783 251.068 456.737 251.339 457.514 251.907C457.595 251.968 457.676 252.042 457.755 252.096C457.952 252.26 458.157 252.414 458.37 252.557L458.541 252.678C459.674 253.48 460.958 254.389 461.02 255.275L465.762 285.059C465.833 285.909 465.627 286.76 465.175 287.483C465.069 287.661 464.947 287.83 464.812 287.987C464.694 288.126 464.565 288.256 464.426 288.375C463.772 288.963 462.941 289.318 462.064 289.384L447.23 290.341C446.47 290.4 445.71 290.241 445.037 289.884C444.364 289.527 443.806 288.986 443.428 288.325V288.325Z" fill="#2F2E41"/>
<path d="M415.648 321.952C415.364 321.952 415.091 321.839 414.89 321.638C414.689 321.437 414.576 321.165 414.576 320.881V268.916C414.576 268.631 414.689 268.359 414.89 268.158C415.091 267.957 415.363 267.844 415.648 267.844C415.932 267.844 416.204 267.957 416.405 268.158C416.606 268.359 416.719 268.631 416.719 268.916V320.881C416.719 321.165 416.606 321.437 416.405 321.638C416.204 321.839 415.932 321.952 415.648 321.952Z" fill="white"/>
<path d="M465.76 197.198L415.952 178.977C415.687 178.88 415.445 178.732 415.238 178.542C415.03 178.351 414.863 178.122 414.744 177.867C414.626 177.612 414.559 177.335 414.547 177.054C414.535 176.773 414.579 176.492 414.675 176.228L414.844 175.431C418.734 164.798 431.627 158.106 442.26 161.996L457.588 167.603C468.221 171.493 472.842 184.084 468.952 194.718L468.509 195.922C468.314 196.456 467.914 196.89 467.399 197.129C466.883 197.369 466.294 197.393 465.76 197.198Z" fill="#2F2E41"/>
<path d="M468.443 198.209C399.02 200.771 392.954 192.048 414.107 178.331L418.594 170.074L470.024 188.825L468.443 198.209Z" fill="#2F2E41"/>
<path d="M454.831 166.296C455.214 165.021 453.572 163.4 451.164 162.676C448.755 161.952 446.492 162.399 446.109 163.674C445.726 164.949 447.367 166.57 449.776 167.294C452.184 168.017 454.447 167.571 454.831 166.296Z" fill="#2F2E41"/>
<path d="M151.924 0C102.147 0 61.6559 40.4906 61.6559 90.2681C61.6417 103.01 64.3397 115.609 69.5707 127.227C83.7174 158.626 115.304 180.536 151.924 180.536C175.861 180.523 198.813 171.008 215.739 154.083C232.664 137.157 242.179 114.205 242.192 90.2681C242.192 40.4907 201.694 0 151.924 0ZM226.608 126.556C219.792 140.565 209.176 152.377 195.971 160.644C182.766 168.912 167.503 173.302 151.924 173.315C116.734 173.315 86.5844 151.311 74.5173 120.338C70.7775 110.755 68.8646 100.556 68.8774 90.2681C68.8774 44.4768 106.133 7.22145 151.924 7.22145C197.715 7.22145 234.971 44.4768 234.971 90.2681C234.986 102.843 232.126 115.256 226.608 126.556Z" fill="#E6E6E6"/>
<path d="M151.924 180.804C134.826 180.79 118.08 175.94 103.62 166.815C89.1604 157.689 77.5767 144.66 70.2063 129.232C69.9121 128.617 69.7844 127.935 69.8359 127.255C69.8874 126.575 70.1163 125.92 70.4997 125.357L70.5481 125.286C70.931 124.731 71.4531 124.287 72.062 123.998C72.6708 123.708 73.345 123.585 74.0169 123.638C74.6888 123.692 75.3348 123.922 75.8899 124.304C76.4451 124.686 76.8899 125.208 77.1797 125.816C90.8748 154.508 120.214 173.047 151.924 173.047C166.415 173.01 180.645 169.185 193.202 161.951C205.758 154.717 216.206 144.326 223.507 131.809C223.846 131.221 224.335 130.733 224.924 130.396C225.513 130.058 226.181 129.883 226.86 129.887C227.532 129.885 228.192 130.062 228.772 130.401C229.352 130.739 229.832 131.226 230.161 131.811L230.203 131.885C230.537 132.476 230.711 133.144 230.708 133.822C230.704 134.501 230.523 135.167 230.183 135.754C222.195 149.431 210.771 160.784 197.044 168.686C183.317 176.588 167.763 180.765 151.924 180.804Z" fill="#FF9900"/>
<path d="M131.578 98.5243C134.032 98.5084 136.415 99.3446 138.32 100.89C140.226 102.436 141.536 104.595 142.027 106.999C142.518 109.403 142.16 111.902 141.013 114.071C139.866 116.241 138.002 117.944 135.738 118.892C133.475 119.839 130.953 119.972 128.603 119.267C126.253 118.562 124.22 117.063 122.852 115.026C121.484 112.99 120.865 110.541 121.101 108.099C121.338 105.657 122.414 103.372 124.147 101.635C125.119 100.651 126.275 99.8694 127.551 99.3354C128.827 98.8013 130.195 98.5257 131.578 98.5243ZM131.578 94.0109C128.602 94.0093 125.692 94.8903 123.217 96.5424C120.742 98.1945 118.812 100.544 117.671 103.292C116.531 106.041 116.231 109.067 116.81 111.986C117.389 114.905 118.821 117.587 120.924 119.693C123.028 121.798 125.708 123.233 128.627 123.815C131.545 124.397 134.571 124.101 137.321 122.963C140.071 121.826 142.422 119.899 144.077 117.425C145.732 114.951 146.616 112.042 146.617 109.066C146.62 105.076 145.036 101.247 142.216 98.4239C139.396 95.6005 135.569 94.0131 131.578 94.0109H131.578ZM162.93 72.4917C164.291 72.4986 165.599 71.9645 166.567 71.0069C167.534 70.0493 168.082 68.7467 168.088 67.3856C168.089 67.3682 168.089 67.3509 168.088 67.3335C168.095 66.6667 167.97 66.0052 167.72 65.3867C167.471 64.7683 167.103 64.205 166.636 63.729C166.169 63.253 165.612 62.8736 164.999 62.6126C164.385 62.3515 163.726 62.2139 163.059 62.2076C163.027 62.2073 162.995 62.2073 162.963 62.2076C161.599 62.1947 160.286 62.7241 159.312 63.6793C158.339 64.6345 157.785 65.9373 157.772 67.301C157.759 68.6648 158.289 69.9778 159.244 70.9512C160.199 71.9246 161.502 72.4786 162.866 72.4915C162.887 72.4917 162.909 72.4917 162.93 72.4917ZM173.714 98.5243C176.168 98.5084 178.551 99.3446 180.456 100.89C182.362 102.436 183.672 104.595 184.163 106.999C184.654 109.403 184.296 111.902 183.149 114.071C182.002 116.241 180.138 117.944 177.874 118.892C175.611 119.839 173.089 119.972 170.739 119.267C168.389 118.562 166.356 117.063 164.988 115.026C163.62 112.99 163.001 110.541 163.237 108.099C163.473 105.657 164.55 103.372 166.283 101.635C167.254 100.651 168.411 99.8694 169.687 99.3353C170.962 98.8013 172.331 98.5257 173.714 98.5243ZM173.714 94.0109C170.74 94.0109 167.832 94.893 165.359 96.5455C162.885 98.1981 160.958 100.547 159.82 103.295C158.681 106.043 158.383 109.067 158.964 111.984C159.544 114.902 160.976 117.581 163.08 119.685C165.183 121.788 167.863 123.22 170.78 123.801C173.697 124.381 176.721 124.083 179.469 122.945C182.217 121.806 184.566 119.879 186.219 117.406C187.871 114.932 188.753 112.025 188.753 109.05C188.753 107.075 188.364 105.12 187.609 103.295C186.853 101.47 185.745 99.8124 184.348 98.4159C182.952 97.0193 181.294 95.9115 179.469 95.1557C177.645 94.4 175.689 94.0109 173.714 94.0109Z" fill="#E6E6E6"/>
<path d="M170.7 82.8403H162.963L158.207 73.1526C157.824 72.4732 157.288 71.8922 156.641 71.4551C155.995 71.0181 155.256 70.7369 154.483 70.6338C153.709 70.5307 152.923 70.6084 152.184 70.8609C151.446 71.1133 150.777 71.5336 150.228 72.0887L138.671 83.2272C137.725 84.1928 137.188 85.4862 137.172 86.8379C137.172 89.6426 139.203 90.6421 140.154 91.2062C147.488 95.4294 150.067 95.8969 150.067 98.0085V108.631C150.067 109.315 150.339 109.971 150.822 110.455C151.306 110.939 151.962 111.21 152.646 111.21C153.33 111.21 153.986 110.939 154.47 110.455C154.954 109.971 155.225 109.315 155.225 108.631V94.1238C155.225 91.9961 150.325 90.2552 147.44 87.9985L155.322 79.697C158.336 84.291 159.723 87.9985 161.447 87.9985H170.7C171.384 87.9996 172.04 87.7289 172.525 87.246C173.009 86.7631 173.282 86.1076 173.283 85.4235C173.284 84.7395 173.013 84.0831 172.531 83.5986C172.048 83.1142 171.392 82.8414 170.708 82.8403H170.7V82.8403Z" fill="#E6E6E6"/>
<path d="M79.3174 229.214C77.0957 229.214 75.2562 235.682 74.8997 244.163H32.1577C31.8012 235.682 29.9617 229.214 27.7399 229.214C25.263 229.214 23.2549 237.246 23.2549 247.153C23.2549 257.061 25.263 265.093 27.7399 265.093C29.9617 265.093 31.8012 258.625 32.1577 250.143H74.8997C75.2562 258.625 77.0956 265.093 79.3174 265.093C81.7943 265.093 83.8024 257.061 83.8024 247.153C83.8024 237.246 81.7944 229.214 79.3174 229.214Z" fill="#E6E6E6"/>
<path d="M100.137 220.666C93.8023 209.312 83.5458 200.656 71.2882 196.319C59.0307 191.983 45.6127 192.262 33.5467 197.107C21.4807 201.951 11.594 211.027 5.73799 222.635C-0.118051 234.244 -1.54193 247.589 1.73298 260.172C5.00788 272.755 12.757 283.713 23.5293 290.993C34.3017 298.274 47.3585 301.379 60.2551 299.726C73.1517 298.073 85.0036 291.776 93.5917 282.014C102.18 272.252 106.915 259.694 106.911 246.692C106.908 237.581 104.576 228.622 100.137 220.666ZM53.4435 295.878C40.4845 295.811 28.0808 290.608 18.9527 281.41C9.82451 272.211 4.71713 259.768 4.75066 246.809C4.78419 233.849 9.9559 221.433 19.1315 212.281C28.3071 203.13 40.7376 197.991 53.6967 197.992C66.6558 197.993 79.0856 203.133 88.2601 212.286C97.4345 221.438 102.605 233.856 102.636 246.815C102.668 259.774 97.5593 272.217 88.4299 281.414C79.3006 290.612 66.8962 295.813 53.9372 295.878C53.7726 295.878 53.608 295.878 53.4435 295.878Z" fill="#E6E6E6"/>
<path d="M53.4695 300.428C43.2818 300.433 33.3035 297.535 24.7027 292.075C24.2732 291.801 23.9417 291.398 23.756 290.923L23.7291 290.854C23.5424 290.384 23.5117 289.866 23.6415 289.377C23.7713 288.889 24.0548 288.454 24.4502 288.139C24.8323 287.818 25.3077 287.628 25.806 287.597C26.3044 287.567 26.7993 287.698 27.2177 287.97C36.3595 293.789 47.1755 296.406 57.9663 295.41C68.7571 294.415 78.9114 289.862 86.834 282.468C94.7565 275.075 99.9983 265.259 101.736 254.562C103.474 243.866 101.609 232.895 96.434 223.374C96.1914 222.937 96.0955 222.434 96.1603 221.939C96.2252 221.444 96.4475 220.983 96.7943 220.623C97.1369 220.251 97.5901 219.998 98.0872 219.902C98.5844 219.807 99.099 219.873 99.5554 220.092L99.6224 220.124C100.08 220.338 100.458 220.692 100.702 221.135C105.131 229.315 107.36 238.505 107.171 247.806C106.982 257.106 104.38 266.198 99.6215 274.191C94.8629 282.184 88.11 288.804 80.0242 293.403C71.9384 298.002 62.7968 300.423 53.4945 300.428H53.4695Z" fill="#FF9900"/>
<path d="M250.38 193.234C243.357 193.231 236.403 194.612 229.914 197.297C223.425 199.982 217.528 203.919 212.561 208.883C207.593 213.847 203.653 219.741 200.964 226.229C198.275 232.716 196.89 239.67 196.889 246.692C196.887 253.715 198.27 260.669 200.956 267.157C203.643 273.646 207.582 279.541 212.547 284.507C217.512 289.473 223.408 293.412 229.896 296.1C236.384 298.787 243.338 300.17 250.36 300.17H250.38C250.726 300.17 251.066 300.17 251.412 300.155C265.501 299.884 278.913 294.062 288.732 283.955C298.55 273.848 303.982 260.274 303.846 246.183C303.71 232.093 298.017 218.626 288.005 208.711C277.993 198.795 264.471 193.233 250.38 193.234V193.234ZM261.277 294.667C254.528 296.199 247.532 296.291 240.745 294.934C233.959 293.578 227.535 290.805 221.893 286.797C216.252 282.788 211.519 277.635 208.006 271.672C204.492 265.71 202.276 259.073 201.503 252.196C200.729 245.318 201.416 238.355 203.517 231.761C205.619 225.168 209.088 219.091 213.699 213.93C218.309 208.769 223.957 204.638 230.273 201.809C236.588 198.979 243.43 197.514 250.351 197.509H250.38C262.477 197.509 274.15 201.966 283.168 210.028C292.187 218.091 297.918 229.194 299.266 241.216C300.614 253.238 297.485 265.335 290.477 275.195C283.469 285.055 273.074 291.988 261.277 294.667Z" fill="#E6E6E6"/>
<path d="M250.38 300.437C237.119 300.437 224.326 295.533 214.462 286.67C204.599 277.806 198.361 265.608 196.95 252.422C195.538 239.236 199.051 225.994 206.815 215.243C214.578 204.492 226.043 196.991 239.003 194.183C239.322 194.115 239.651 194.111 239.972 194.171L240.083 194.192C240.621 194.296 241.106 194.583 241.457 195.003C241.808 195.424 242.003 195.952 242.009 196.5C242.016 197.048 241.833 197.581 241.492 198.01C241.151 198.438 240.673 198.736 240.137 198.853C228.323 201.386 217.864 208.2 210.774 217.985C203.685 227.769 200.466 239.831 201.739 251.846C203.012 263.862 208.685 274.981 217.667 283.063C226.649 291.145 238.304 295.618 250.387 295.619C250.86 295.615 251.319 295.613 251.786 295.599C252.306 295.578 252.817 295.74 253.23 296.057C253.642 296.375 253.93 296.828 254.042 297.336C254.165 297.827 254.111 298.346 253.888 298.801C253.665 299.256 253.289 299.617 252.825 299.821V299.821C252.51 299.966 252.194 300.107 251.876 300.246C251.609 300.364 251.32 300.428 251.028 300.434C250.812 300.437 250.597 300.437 250.38 300.437Z" fill="#FF9900"/>
<path d="M276.757 244.429C275.332 244.357 273.924 244.754 272.746 245.558C271.568 246.362 270.685 247.529 270.233 248.882H264.967L261.123 237.322C260.98 236.889 260.705 236.512 260.335 236.245C259.966 235.977 259.521 235.833 259.065 235.833H259.025C258.562 235.84 258.114 235.997 257.748 236.28C257.382 236.563 257.117 236.957 256.994 237.403L250.971 258.425L243.891 215.908C243.809 215.416 243.56 214.967 243.186 214.637C242.812 214.306 242.336 214.115 241.837 214.094C241.339 214.074 240.849 214.225 240.449 214.523C240.049 214.822 239.763 215.248 239.641 215.732L232.467 248.882H224.426C223.852 248.882 223.301 249.11 222.895 249.516C222.489 249.923 222.26 250.473 222.26 251.048C222.26 251.622 222.489 252.173 222.895 252.579C223.301 252.985 223.852 253.214 224.426 253.214H234.172C234.655 253.214 235.123 253.053 235.504 252.756C235.884 252.46 236.154 252.044 236.27 251.576L241.333 226.913L248.277 268.591C248.356 269.076 248.6 269.52 248.967 269.847C249.334 270.175 249.802 270.367 250.294 270.391H250.416C250.886 270.39 251.344 270.237 251.72 269.954C252.096 269.671 252.37 269.273 252.5 268.821L259.228 245.322L261.353 251.725C261.498 252.156 261.774 252.532 262.143 252.799C262.512 253.066 262.955 253.211 263.41 253.214H270.327C270.741 254.309 271.443 255.272 272.358 256.001C273.274 256.731 274.37 257.199 275.53 257.357C276.69 257.515 277.871 257.357 278.948 256.899C280.026 256.441 280.96 255.701 281.651 254.756C282.343 253.811 282.766 252.697 282.877 251.532C282.987 250.367 282.781 249.193 282.28 248.135C281.778 247.077 281 246.174 280.028 245.522C279.056 244.869 277.926 244.492 276.757 244.429H276.757Z" fill="#E6E6E6"/>
<path d="M487.464 389.722H389.427C389.285 389.722 389.148 389.665 389.048 389.565C388.947 389.464 388.891 389.328 388.891 389.186C388.891 389.044 388.947 388.907 389.048 388.807C389.148 388.707 389.285 388.65 389.427 388.65H487.464C487.606 388.65 487.743 388.707 487.843 388.807C487.944 388.907 488 389.044 488 389.186C488 389.328 487.944 389.464 487.843 389.565C487.743 389.665 487.606 389.722 487.464 389.722Z" fill="#3F3D56"/>
</g>
<defs>
<clipPath id="clip0">
<rect width="488" height="389.721" fill="white"/>
</clipPath>
</defs>
</svg>
